<svg xmlns="http://www.w3.org/2000/svg" viewBox="0 0 607.6 117.9"><defs><style>.cls-1{fill:#4893cf;}.cls-2{fill:#1f272d;}</style></defs><title>Asset 1</title><g id="Layer_2" data-name="Layer 2"><g id="Layer_1-2" data-name="Layer 1"><path class="cls-1" d="M74.47,75.57C90.55,45.76,103.55,46.9,103.55,46.9c27.69-6.54,31.55-6.84,34.61-7.53s16.7,3.43,21.9,5.21,28.62,6.29,32.88,6.22,18.57,1.08,18.57,1.08l10.57,1.58c14.05-5.39,33-20.29,33-20.29s5.62,1.21,7.24,2.28,6.65.83,9.28.83a14.67,14.67,0,0,0,3.5-.25c3.33,2.16,29.88-8.73,35.75-11.08s14.66-2.54,14.66-2.54a22.91,22.91,0,0,0,4.69-2.1c1.19-.63,9.12,1.4,9.12,1.4,3.15,2.54,13.46,3.55,13.46,3.55,1.44-1.4,29.13,11.62,29.38,11.49s6-1.21,6.48-1,7,.76,7.75.13S413.76,44,413.76,44c1.11.89,5.11.64,5.11.64l2.73-.19,6,1.46,3.83.32c1,.63,4.09.76,4.09.76,1.62-.83,5.82,2.27,5.82,2.27,1.53-.25,9.44,7.33,9.44,7.33,1.28-.76,6,.83,6,.83,2,2.41,6.48-.32,6.48-.32,1.19-.13,6.39-.38,7.5-1.21s16-.83,16-.83,5.45.19,6.22.07l2.3-.38c-4.06,6.81-.17,6.81-.17,6.81-3.15,7.66,2.92,1.95,2.92,1.95-3.82,11.76,5.83,1,5.83,1-3.61,17.64,8.76,5.84,8.76,5.84,1.44-.19,3.6-2.26,7.78-4.86s17.5,1,17.5,1c7.52-7.17,34.06,17.45,41.07,25.45v.63h.55l.64.73v22.86l-528.42.2Z"/><path class="cls-2" d="M3.29,109.55V97.42h2V71.16H18.91V82.45h4.46v-10h7.09v4.2h4.2V89.54h4.2v-16H42.8V56.19H60.13V52.26H73.26v7.88c0,1.31,3.16,0,3.16,0V50.42H85.6V53.3h4.2v6.3h8.4V42.27h15V75.89h6.57v-5h3.15v-5h14.7V78.25h12.34V83.5h5.91v8.27l2-2V70.63h6.3V59.34h10V70.9h2.62v4.2H194V68h12.87v8.14h11.82V70.9H230.8V81.4h5.51V5h6.83V0h12.34V4.46h4.2v73h4.2v-37l5.52.26V26h4.72v5.51l4.73,9.19V63.54h7.88V60.92H292V57.5h12.87v5.78h4.46V60.39h3.15v2.89h5.25v6.44h4.34l4.6-4.6h4.2l6.56,6.56h13.92V97.16h4.46V78h7.61V59.08h18.91v7.09h4.2V62.76h8.93V67h6.3V88h5.78V77.72h3.68l2.1,2.1,2.62,2.62h3.15V61.18h5.78V52h8.92V64.33h6V57.24h10.76v-6h10.51v4.2h11.29V52.52h2.36V48.58h4.72V36.5H491v4.2h13.39v27h3.41V70.9h5V68.53H524.1V44.38h14.44V41.49h10v2.63h7.61V64.6h9.46V60.13h5.25V58h10V39.65h13.13l3.41,3.41V71.68h2.57V96.84H605V108.7h2.58v9.2H0v-8.35Z"/></g></g></svg>